<svg width="34" height="28" fill="none" xmlns="http://www.w3.org/2000/svg"><path fill-rule="evenodd" clip-rule="evenodd" d="M4.086 1.663a2.762 2.762 0 00-2.752 2.752v19.514a2.762 2.762 0 002.752 2.752h26.02a2.762 2.762 0 002.751-2.752V4.415a2.762 2.762 0 00-2.752-2.752H4.086zM.334 4.415A3.762 3.762 0 014.086.663h26.02a3.762 3.762 0 013.751 3.752v19.514a3.762 3.762 0 01-3.752 3.752H4.086A3.762 3.762 0 01.334 23.93V4.415z" fill="#fff"/><path fill-rule="evenodd" clip-rule="evenodd" d="M.424 4.128a.5.5 0 01.697-.123l15.975 11.183L33.07 4.005a.5.5 0 01.573.82l-16.26 11.383a.5.5 0 01-.574 0L.547 4.825a.5.5 0 01-.123-.697z" fill="#fff"/></svg>