<svg width="49" height="49" fill="none" xmlns="http://www.w3.org/2000/svg"><path d="M25.204 3.745c-5.722 0-10.36 4.639-10.36 10.36 0 5.722 4.638 10.36 10.36 10.36 5.722 0 10.36-4.638 10.36-10.36 0-5.721-4.638-10.36-10.36-10.36zm0 14.643a4.283 4.283 0 110-8.566 4.283 4.283 0 010 8.566zm3.176 14.948c4.213-.858 6.737-2.853 6.87-2.96a2.86 2.86 0 00-3.579-4.463c-.026.02-2.718 2.086-7.147 2.089-4.43-.003-7.179-2.068-7.205-2.09a2.86 2.86 0 00-3.579 4.464c.135.109 2.764 2.155 7.094 2.993l-6.035 6.307a2.86 2.86 0 104.119 3.971l5.606-5.972 6.172 6.011a2.86 2.86 0 104.043-4.049l-6.358-6.3z" fill="#fff"/></svg>