<svg width="49" height="51" fill="none" xmlns="http://www.w3.org/2000/svg"><path d="M18.89 41.539c-1.259 0-1.045-.476-1.479-1.674L13.71 27.683l28.491-16.902" fill="#C8DAEA"/><path d="M18.892 41.54c.97 0 1.4-.445 1.942-.972l5.18-5.037-6.461-3.897" fill="#A9C9DD"/><path d="M19.55 31.635l15.657 11.567c1.787.986 3.076.476 3.521-1.658l6.374-30.033c.652-2.617-.998-3.803-2.707-3.027L4.972 22.914c-2.555 1.025-2.54 2.45-.466 3.085l9.604 2.998L36.343 14.97c1.05-.637 2.013-.295 1.223.407" fill="url(#paint0_linear_739_2169)"/><defs><linearGradient id="paint0_linear_739_2169" x1="30.87" y1="23.731" x2="36.95" y2="37.567" gradientUnits="userSpaceOnUse"><stop stop-color="#EFF7FC"/><stop offset="1" stop-color="#fff"/></linearGradient></defs></svg>