<svg width="50" height="49" fill="none" xmlns="http://www.w3.org/2000/svg"><path fill-rule="evenodd" clip-rule="evenodd" d="M45.036 15.902c.292-1.015 0-1.76-1.39-1.76h-4.594c-1.168 0-1.707.644-2 1.354 0 0-2.336 5.937-5.646 9.793-1.07 1.116-1.558 1.472-2.142 1.472-.292 0-.715-.356-.715-1.37v-9.489c0-1.218-.339-1.76-1.312-1.76h-7.22c-.73 0-1.17.565-1.17 1.1 0 1.155 1.655 1.421 1.826 4.669v7.053c0 1.546-.268 1.826-.852 1.826-1.558 0-5.347-5.963-7.594-12.786-.44-1.327-.883-1.862-2.057-1.862H5.575c-1.312 0-1.575.644-1.575 1.354 0 1.269 1.558 7.56 7.253 15.882 3.797 5.683 9.147 8.764 14.014 8.764 2.921 0 3.282-.685 3.282-1.863v-4.295c0-1.369.277-1.642 1.202-1.642.681 0 1.85.355 4.576 3.095 3.115 3.248 3.629 4.705 5.381 4.705h4.595c1.313 0 1.97-.685 1.59-2.035-.414-1.346-1.901-3.298-3.875-5.613-1.07-1.319-2.677-2.74-3.164-3.45-.681-.913-.487-1.32 0-2.131 0 0 5.598-8.22 6.182-11.01z" fill="#fff"/></svg>